# AST/ASF file generated using VICON BodyLanguage
# -----------------------------------------------
:version 1.10
:name VICON
:units
  mass 1.0
  length 0.45
  angle deg
:documentation
   .ast/.asf automatically generated from VICON data using
   VICON BodyBuilder and BodyLanguage model FoxedUp or BRILLIANT.MOD
:root
   order TX TY TZ RX RY RZ
   axis XYZ
   position 0 0 0  
   orientation 0 0 0 
:bonedata
  begin
     id 1 
     name lhipjoint
     direction 0.677091 -0.635792 0.370561 
     length 2.74323 
     axis 0 0 0  XYZ
  end
  begin
     id 2 
     name lfemur
     direction 0.34202 -0.939693 0  
     length 7.44995  
     axis 0 0 20  XYZ
    dof rx ry rz
    limits (-160.0 20.0)
           (-70.0 70.0)
           (-60.0 70.0)
  end
  begin
     id 3 
     name ltibia
     direction 0.34202 -0.939693 0   
     length 7.34467   
     axis 0 0 20   XYZ
    dof rx
    limits (-10.0 170.0)
  end
  begin
     id 4 
     name lfoot
     direction 0.101953 -0.280114 0.954537   
     length 1.72105   
     axis -90 7.62852e-016 20   XYZ
    dof rx rz
    limits (-45.0 90.0)
           (-70.0 20.0)
  end
  begin
     id 5 
     name ltoes
     direction 1.53537e-011 -4.21915e-011 1   
     length 0.865872   
     axis -90 7.62852e-016 20   XYZ
    dof rx
    limits (-90.0 20.0)
  end
  begin
     id 6 
     name rhipjoint
     direction -0.695735 -0.620586 0.361699   
     length 2.81045  
     axis 0 0 0  XYZ 
  end
  begin
     id 7 
     name rfemur
     direction -0.34202 -0.939693 0   
     length 7.29387   
     axis 0 0 -20   XYZ
    dof rx ry rz
    limits (-160.0 20.0)
           (-70.0 70.0)
           (-70.0 60.0)
  end
  begin
     id 8 
     name rtibia
     direction -0.34202 -0.939693 0   
     length 7.44935   
     axis 0 0 -20   XYZ
    dof rx
    limits (-10.0 170.0)
 end
 begin
     id 9 
     name rfoot
     direction -0.104163 -0.286184 0.952496   
     length 1.77731  
     axis -90 -7.62852e-016 -20   XYZ
    dof rx rz
    limits (-45.0 90.0)
           (-20.0 70.0)
  end
  begin
     id 10 
     name rtoes
     direction -1.5355e-011 -4.21888e-011 1   
     length 0.892424   
     axis -90 -7.62852e-016 -20   XYZ
    dof rx
    limits (-90.0 20.0)
  end
  begin
     id 11 
     name lowerback
     direction 0.0100202 0.997226 -0.0737589   
     length 2.16892   
     axis 0 0 0   XYZ
    dof rx ry rz
    limits (-20.0 45.0)
           (-30.0 30.0)
           (-30.0 30.0)
  end
  begin
     id 12 
     name upperback
     direction 0.00432398 0.999988 -0.00215019   
     length 2.17326   
     axis 0 0 0   XYZ
    dof rx ry rz
    limits (-20.0 45.0)
           (-30.0 30.0)
           (-30.0 30.0)
  end
  begin
     id 13 
     name thorax
     direction -0.00195047 0.999485 0.0320434   
     length 2.18139   
     axis 0 0 0   XYZ
    dof rx ry rz
    limits (-20.0 45.0)
           (-30.0 30.0)
           (-30.0 30.0)
  end
  begin
     id 14 
     name lowerneck
     direction 0.00782762 0.986241 0.165128   
     length 1.88415   
     axis 0 0 0   XYZ
    dof rx ry rz
    limits (-20.0 45.0)
           (-30.0 30.0)
           (-30.0 30.0)
  end
  begin
     id 15 
     name upperneck
     direction 0.00988667 0.981098 -0.193258   
     length 1.9242   
     axis 0 0 0   XYZ
    dof rx ry rz
    limits (-20.0 45.0)
           (-30.0 30.0)
           (-30.0 30.0)
  end
  begin
     id 16
     name head
     direction 0.00252199 0.996513 -0.0833958  
     length 1.93887  
     axis 0 0 0   XYZ
    dof rx ry rz
    limits (-20.0 45.0)
           (-30.0 30.0)
           (-30.0 30.0)
  end
  begin
     id 17 
     name lclavicle
     direction 0.929492 0.368193 -0.0218667  
     length 3.5955  
     axis 0 0 0   XYZ
    dof ry rz
    limits (-20.0 10.0)
           (0.0 20.0)
  end
  begin
     id 18 
     name lhumerus
     direction 1 -4.48972e-011 1.41911e-027   
     length 5.2795   
     axis 180 -30 -90   XYZ
    dof rx ry rz
    limits (-60.0 90.0)
           (-90.0 90.0)
           (-90.0 90.0)
  end
  begin
     id 19
     name lradius
     direction 1 -4.48963e-011 7.05772e-027   
     length 3.53504   
     axis 180 -30 -90   XYZ
    dof rx
    limits (-10.0 170.0)
  end
  begin
     id 20
     name lwrist
     direction 1 -4.48957e-011 9.54866e-027   
     length 1.76752   
     axis -7.69462e-015 90 90   XYZ
    dof ry
    limits (-180.0 0.0)
 end
  begin
     id 21 
     name lhand
     direction 1 -4.48979e-011 1.90973e-026   
     length 0.667948   
     axis -1.21857e-014 90 90   XYZ
    dof rx rz
    limits (-90.0 90.0)
           (-45.0 45.0)
  end
  begin
     id 22 
     name lfingers
     direction 1 -4.48987e-011 3.81946e-026   
     length 0.538517   
     axis -2.43714e-014 90 90   XYZ
    dof rx
    limits (0.0 90.0)
  end
  begin
     id 23
     name lthumb
     direction 0.707107 -6.34962e-011 0.707107   
     length 0.773206   
     axis -90 45 2.85299e-015   XYZ
    dof rx rz
    limits (-45.0 45.0)
           (-45.0 45.0)
  end
  begin
     id 24 
     name rclavicle
     direction -0.898763 0.414256 -0.143584   
     length 3.5176  
     axis 0 0 0   XYZ 
    dof ry rz
    limits (-10.0 20.0)
           (-20.0 0.0)
  end
  begin
     id 25 
     name rhumerus
     direction -1 -4.48971e-011 1.129e-027  
     length 5.25035   
     axis 180 30 90   XYZ
    dof rx ry rz
    limits (-90.0 60.0)
           (-90.0 90.0)
           (-90.0 90.0)
  end
  begin
     id 26 
     name rradius
     direction -1 -4.48955e-011 6.34664e-027   
     length 3.58884   
     axis 180 30 90   XYZ
    dof rx
    limits (-10.0 170.0)
  end
  begin
     id 27 
     name rwrist
     direction -1 -4.48966e-011 9.54866e-027   
     length 1.79442   
     axis -7.69462e-015 -90 -90   XYZ
    dof ry
    limits (-180.0 0.0)
  end
  begin
     id 28
     name rhand
     direction -1 -4.48973e-011 1.90973e-026   
     length 0.779235   
     axis -1.21857e-014 -90 -90   XYZ
    dof rx rz
    limits (-90.0 90.0)
           (-45.0 45.0)
  end
  begin
     id 29
     name rfingers
     direction -1 -4.48984e-011 3.81946e-026   
     length 0.62824   
     axis -2.43714e-014 -90 -90   XYZ
    dof rx
    limits (0.0 90.0)
  end
  begin
     id 30
     name rthumb
     direction -0.707107 -6.34968e-011 0.707107   
     length 0.90203   
     axis -90 -45 -2.85299e-015   XYZ
    dof rx rz
    limits (-45.0 45.0)
           (-45.0 45.0)
  end
:hierarchy
  begin
    root lhipjoint rhipjoint lowerback
    lhipjoint lfemur
    lfemur ltibia
    ltibia lfoot
    lfoot ltoes
    rhipjoint rfemur
    rfemur rtibia
    rtibia rfoot
    rfoot rtoes
    lowerback upperback
    upperback thorax
    thorax lowerneck lclavicle rclavicle
    lowerneck upperneck
    upperneck head
    lclavicle lhumerus
    lhumerus lradius
    lradius lwrist
    lwrist lhand lthumb
    lhand lfingers
    rclavicle rhumerus
    rhumerus rradius
    rradius rwrist
    rwrist rhand rthumb
    rhand rfingers
  end

#!OML:ASF I:\Random Stuff\random\construction\7_22_03\Session 2\subj1.ASF
:FULLY-SPECIFIED
:DEGREES
290
root -8.6463 17.7774 -5.13392 -306.431 98.1355 -321.294
lowerback 6.19862 1.89656 -7.96135
upperback 4.43377 2.60838 -7.18798
thorax 1.16259 1.40914 -3.14809
lowerneck -23.1127 -1.05776 -1.39237
upperneck 44.9668 -0.804418 5.7325
head 23.4975 0.858447 3.58178
rclavicle 3.65764e-014 -2.54444e-014
rhumerus 25.6604 62.5384 -37.5428
rradius 81.4504
rwrist 4.61985
rhand -6.79371 7.85834
rfingers 7.12502
rthumb 19.0692 -21.2268
lclavicle 3.65764e-014 -2.54444e-014
lhumerus 7.33128 -56.8241 82.7731
lradius 43.8351
lwrist 9.69497
lhand -16.1314 53.6617
lfingers 7.12502
lthumb 10.0734 83.4006
rfemur -14.7608 11.1014 16.9834
rtibia 3.08116e-014
rfoot 1.6061 -9.09211
rtoes -29.8193
lfemur -27.6485 -14.8153 -4.15976
ltibia 25.583
lfoot -12.5517 15.8361
ltoes -37.7868
291
root -8.63699 17.7741 -5.13222 -306.509 98.2434 -321.301
lowerback 6.08639 1.92307 -8.03209
upperback 4.47468 2.66288 -7.19297
thorax 1.26621 1.4332 -3.11194
lowerneck -23.1287 -1.06564 -1.38991
upperneck 44.8911 -0.82901 5.72187
head 23.4345 0.848485 3.55994
rclavicle 1.27222e-014 5.725e-014
rhumerus 25.3362 62.4192 -37.9764
rradius 81.3085
rwrist 4.54383
rhand -6.52759 7.61209
rfingers 7.12502
rthumb 19.3251 -21.4477
lclavicle 1.27222e-014 5.725e-014
lhumerus 7.58416 -57.1259 82.5758
lradius 43.6623
lwrist 9.42661
lhand -16.2386 53.8793
lfingers 7.12502
lthumb 9.96995 83.6232
rfemur -14.6003 11.0478 17.1069
rtibia 5.08889e-014
rfoot 1.47752 -9.12635
rtoes -29.7108
lfemur -27.6484 -14.6556 -4.14929
ltibia 25.7832
lfoot -12.6772 15.6448
ltoes -37.8243
292
root -8.62853 17.7707 -5.12734 -306.235 98.4429 -320.936
lowerback 6.02261 1.93321 -8.04291
upperback 4.49099 2.68467 -7.15931
thorax 1.31655 1.4413 -3.06865
lowerneck -23.1467 -1.03816 -1.39654
upperneck 44.8419 -0.791796 5.72832
head 23.3917 0.861484 3.56887
rclavicle -3.02153e-014 4.77083e-014
rhumerus 25.246 62.4076 -38.1748
rradius 81.157
rwrist 5.51452
rhand -6.15031 7.5313
rfingers 7.12502
rthumb 19.6879 -21.4917
lclavicle -3.02153e-014 4.77083e-014
lhumerus 7.71742 -57.3939 82.4295
lradius 43.481
lwrist 8.91407
lhand -16.3884 54.1053
lfingers 7.12502
lthumb 9.82543 83.856
rfemur -14.428 10.9918 17.3633
rtibia -4.77083e-014
rfoot 1.42666 -9.15718
rtoes -29.9099
lfemur -27.6463 -14.502 -4.00627
ltibia 25.9762
lfoot -12.8134 15.3811
ltoes -37.5185
293
root -8.61981 17.7666 -5.11837 -305.493 98.7531 -320.067
lowerback 6.02182 1.92972 -7.94472
upperback 4.48138 2.67678 -7.08731
thorax 1.30576 1.43615 -3.0465
lowerneck -23.178 -0.993179 -1.41289
upperneck 44.8591 -0.69895 5.7198
head 23.4109 0.890896 3.59433
rclavicle 1.59028e-014 2.54444e-014
rhumerus 25.5492 62.5583 -37.9698
rradius 81.0151
rwrist 7.10941
rhand -5.38615 7.45443
rfingers 7.12502
rthumb 20.4224 -21.4916
lclavicle 1.59028e-014 2.54444e-014
lhumerus 7.78229 -57.6607 82.2989
lradius 43.2417
lwrist 8.047
lhand -16.4402 54.3269
lfingers 7.12502
lthumb 9.7755 84.08
rfemur -14.2198 10.9434 17.7857
rtibia 1.39149e-014
rfoot 1.36803 -9.2152
rtoes -29.7149
lfemur -27.6229 -14.2997 -3.71315
ltibia 26.167
lfoot -12.9268 15.021
ltoes -37.2947
294
root -8.61492 17.7644 -5.1175 -305.496 98.8703 -320.042
lowerback 5.9572 1.89882 -8.00508
upperback 4.45901 2.63671 -7.06007
thorax 1.31478 1.41329 -2.98013
lowerneck -23.2229 -0.946522 -1.44674
upperneck 44.8598 -0.547063 5.59469
head 23.4103 0.920775 3.56905
rclavicle 7.95139e-015 -1.30403e-013
rhumerus 26.7659 63.2604 -36.6655
rradius 80.7654
rwrist 10.1528
rhand -6.62814 6.11141
rfingers 7.12502
rthumb 19.2284 -22.958
lclavicle 7.95139e-015 -1.30403e-013
lhumerus 7.97869 -57.8597 82.1142
lradius 42.9313
lwrist 7.0961
lhand -16.4602 54.5517
lfingers 7.12502
lthumb 9.7562 84.3057
rfemur -14.1418 10.8831 17.8984
rtibia 1.98785e-015
rfoot 1.26826 -9.24909
rtoes -29.1867
lfemur -27.6796 -14.0984 -3.68542
ltibia 26.3421
lfoot -12.9482 14.7761
ltoes -37.5493
295
root -8.61118 17.7629 -5.11768 -305.466 98.9667 -319.984
lowerback 5.88404 1.90381 -8.07598
upperback 4.44401 2.64576 -7.02692
thorax 1.33548 1.41421 -2.90394
lowerneck -23.267 -0.934784 -1.53053
upperneck 44.8671 -0.441228 5.50687
head 23.4226 0.930475 3.56462
rclavicle -4.13472e-014 3.49861e-014
rhumerus 27.6647 63.6378 -35.6887
rradius 80.5821
rwrist 12.6928
rhand -5.70709 5.70394
rfingers 7.12502
rthumb 20.1139 -23.2749
lclavicle -4.13472e-014 3.49861e-014
lhumerus 8.2789 -58.0974 81.9126
lradius 42.5897
lwrist 6.15695
lhand -16.5378 54.7615
lfingers 7.12502
lthumb 9.68129 84.519
rfemur -14.0774 10.84 17.9997
rtibia -3.10104e-014
rfoot 1.22193 -9.25482
rtoes -29.2389
lfemur -27.7191 -13.8631 -3.68275
ltibia 26.4808
lfoot -12.9619 14.5746
ltoes -37.9726
